Coordinates
version=1
nRows=6
nColumns=63
inDegrees=yes

Units are S.I. units (second, meters, Newtons, ...)
If the header above contains a line with 'inDegrees', this indicates whether rotational values are in degrees (yes) or radians (no).

endheader
time	pelvis_tilt	pelvis_list	pelvis_rotation	pelvis_tx	pelvis_ty	pelvis_tz	hip_flexion_r	hip_adduction_r	hip_rotation_r	knee_angle_r	knee_angle_r_beta	ankle_angle_r	subtalar_angle_r	mtp_angle_r	hip_flexion_l	hip_adduction_l	hip_rotation_l	knee_angle_l	knee_angle_l_beta	ankle_angle_l	subtalar_angle_l	mtp_angle_l	L5_S1_Flex_Ext	L5_S1_Lat_Bending	L5_S1_axial_rotation	L4_L5_Flex_Ext	L4_L5_Lat_Bending	L4_L5_axial_rotation	L3_L4_Flex_Ext	L3_L4_Lat_Bending	L3_L4_axial_rotation	L2_L3_Flex_Ext	L2_L3_Lat_Bending	L2_L3_axial_rotation	L1_L2_Flex_Ext	L1_L2_Lat_Bending	L1_L2_axial_rotation	L1_T12_Flex_Ext	L1_T12_Lat_Bending	L1_T12_axial_rotation	Abs_r3	Abs_r2	Abs_r1	Abs_t1	Abs_t2	neck_flexion	neck_bending	neck_rotation	arm_flex_r	arm_add_r	arm_rot_r	elbow_flex_r	pro_sup_r	wrist_flex_r	wrist_dev_r	arm_flex_l	arm_add_l	arm_rot_l	elbow_flex_l	pro_sup_l	wrist_flex_l	wrist_dev_l
      6.18333333	      3.53737211	     -5.74732132	     84.39886667	      0.29678801	      0.78329474	      0.87995005	      4.46958377	      2.21484475	     -1.55918590	      6.47565116	      0.11302143	     27.90983311	     10.59186435	      0.00000000	     -3.06957078	     -6.69125046	      2.48971754	      1.93216932	      0.03372272	     26.67168901	     -8.46311516	      0.00000000	      0.18561624	     -0.09117626	      0.46130292	      0.34470792	     -0.12126443	      0.49013435	      0.30494892	     -0.22168596	      0.49013435	      0.21214080	     -0.22168596	      0.40364005	      0.17236324	     -0.18592663	      0.37480862	      0.10606112	     -0.14123203	      0.34597719	      1.32583823	     -1.03140411	      2.56562842	      0.00000000	      0.00000000	     21.39782106	     -6.95283817	    -22.63639360	     87.58400382	    -49.94047266	    -12.02095952	    129.17512700	     87.23637135	    -16.10330550	      2.72333580	     -8.53322984	    -16.17931357	      7.78038706	    103.87353591	     78.71960058	     -5.82118464	     16.12117750
      6.20000000	      3.51302919	     -5.90723542	     84.73740523	      0.29647403	      0.78313773	      0.88065165	      4.56896976	      2.23091141	     -1.39125517	      6.22811799	      0.10870117	     27.74393032	     10.16607858	      0.00000000	     -2.76152851	     -6.69110557	      2.57936016	      2.13757071	      0.03730765	     26.67867964	     -8.44585542	      0.00000000	      0.20178982	     -0.09629404	      0.45735236	      0.37474388	     -0.12807108	      0.48593688	      0.33152050	     -0.23412933	      0.48593688	      0.23062559	     -0.23412933	      0.40018331	      0.18738203	     -0.19636281	      0.37159879	      0.11530270	     -0.14915947	      0.34301427	      1.44136451	     -1.08929746	      2.54365660	      0.00000000	      0.00000000	     21.18254781	     -7.52595369	    -24.09758058	     90.24679039	    -50.36057300	     -9.81354293	    125.89710954	     86.25659405	    -20.69205182	      2.88672513	     -7.61850915	    -16.09090015	      8.71245573	    103.24549084	     79.49831031	     -5.89537451	     17.57094490
      6.21666667	      3.53706216	     -6.04606820	     85.41290690	      0.29568375	      0.78295666	      0.88110706	      4.56446799	      2.26031678	     -1.44775433	      5.85786569	      0.10223904	     27.69548230	      9.79185374	      0.00000000	     -2.40106244	     -6.75193968	      2.77673547	      2.39014185	      0.04171584	     26.74656761	     -8.14180676	      0.00000000	      0.21322861	     -0.08914576	      0.40485662	      0.39598685	     -0.11856387	      0.43016016	      0.35031329	     -0.21674901	      0.43016016	      0.24369898	     -0.21674901	      0.35424954	      0.19800409	     -0.18178604	      0.32894600	      0.12183883	     -0.13808679	      0.30364246	      1.52307065	     -1.00843471	      2.25169105	      0.00000000	      0.00000000	     21.37173297	     -8.14372782	    -25.03823337	     93.40025233	    -50.33256859	     -8.12785192	    122.76550580	     84.67017435	    -21.93190151	      4.88233070	     -6.94326280	    -15.98956795	      9.68889548	    102.85628232	     80.00426181	     -5.65977667	     18.80213417
      6.23333333	      3.43820487	     -6.17433595	     86.17989201	      0.29481377	      0.78272195	      0.88141458	      4.51404997	      2.14097176	     -1.50591114	      5.42339204	      0.09465605	     27.79088453	      9.41889764	      0.00000000	     -2.02890242	     -6.68274610	      3.00856527	      2.64121639	      0.04609792	     26.76665996	     -7.72189672	      0.00000000	      0.21781335	     -0.09917823	      0.32748096	      0.40450117	     -0.13190704	      0.34794852	      0.35784555	     -0.24114194	      0.34794852	      0.24893888	     -0.24114194	      0.28654584	      0.20226148	     -0.20224424	      0.26607828	      0.12445855	     -0.15362707	      0.24561072	      1.55581898	     -1.12192393	      1.82135084	      0.00000000	      0.00000000	     22.02811368	     -8.88254164	    -25.95111296	     96.58227550	    -50.08767883	     -6.73664707	    119.83500431	     83.03568705	    -22.52857020	      7.14451077	     -6.62152622	    -15.98942797	     10.61851199	    102.84504832	     80.24998624	     -5.22485962	     19.67374932
      6.25000000	      3.28364740	     -6.35265817	     86.94075361	      0.29398062	      0.78233384	      0.88155446	      4.44562783	      1.95464623	     -1.52663257	      4.89486755	      0.08543156	     27.91571977	      8.90630171	      0.00000000	     -1.61563876	     -6.55897345	      3.27738010	      2.88983033	      0.05043705	     26.71469667	     -7.20491940	      0.00000000	      0.22606265	     -0.11751646	      0.23603249	      0.41982095	     -0.15629689	      0.25078452	      0.37139833	     -0.28572951	      0.25078452	      0.25836700	     -0.28572951	      0.20652843	      0.20992178	     -0.23963956	      0.19177640	      0.12917220	     -0.18203299	      0.17702437	      1.61474290	     -1.32936966	      1.31274189	      0.00000000	      0.00000000	     23.07029494	     -9.78248558	    -26.88273399	     99.57183025	    -49.66792945	     -5.76759974	    117.24233127	     81.29434674	    -22.32316955	      9.43884191	     -6.67257225	    -16.07389051	     11.49440384	    103.15503441	     80.14329123	     -4.55685848	     20.30346949
      6.26666667	      2.93492192	     -6.56015714	     87.40297499	      0.29339667	      0.78183767	      0.88165339	      4.46153595	      1.54114300	     -1.52635180	      4.51310154	      0.07876848	     28.17289327	      8.61301282	      0.00000000	     -1.24470576	     -6.20570615	      3.49673266	      3.10520661	      0.05419608	     26.49537729	     -6.88516274	      0.00000000	      0.23625302	     -0.16028996	      0.14287062	      0.43874548	     -0.21318565	      0.15180003	      0.38814008	     -0.38972901	      0.15180003	      0.27001357	     -0.38972901	      0.12501179	      0.21938455	     -0.32686328	      0.11608238	      0.13499497	     -0.24828915	      0.10715296	      1.68753168	     -1.81323207	      0.79460353	      0.00000000	      0.00000000	     24.58990071	    -10.77858274	    -27.60393014	    101.91697042	    -49.02153769	     -5.29806048	    114.89082488	     80.53702945	    -21.84752349	     10.43801549	     -7.09543031	    -16.31956573	     12.24766308	    103.70565697	     79.99880128	     -4.02969848	     20.58030083
